<svg width="32" height="32" viewBox="0 0 32 32" fill="none" xmlns="http://www.w3.org/2000/svg">
<path d="M17 7C17 6.44772 16.5523 6 16 6C15.4477 6 15 6.44772 15 7V25C15 25.5523 15.4477 26 16 26C16.5523 26 17 25.5523 17 25V7Z" fill="white"/>
<path d="M21 10C21 9.44772 20.5523 9 20 9C19.4477 9 19 9.44772 19 10V22C19 22.5523 19.4477 23 20 23C20.5523 23 21 22.5523 21 22V10Z" fill="white"/>
<path d="M13 10C13 9.44772 12.5523 9 12 9C11.4477 9 11 9.44772 11 10V22C11 22.5523 11.4477 23 12 23C12.5523 23 13 22.5523 13 22V10Z" fill="white"/>
<path d="M25 14C25 13.4477 24.5523 13 24 13C23.4477 13 23 13.4477 23 14V18C23 18.5523 23.4477 19 24 19C24.5523 19 25 18.5523 25 18V14Z" fill="white"/>
<path d="M9 14C9 13.4477 8.55228 13 8 13C7.44772 13 7 13.4477 7 14V18C7 18.5523 7.44772 19 8 19C8.55228 19 9 18.5523 9 18V14Z" fill="white"/>
</svg>
